<svg width="47" height="47" viewBox="0 0 47 47" fill="none" xmlns="http://www.w3.org/2000/svg">
<path d="M46.5796 41.1657L44.8311 36.0229C44.5943 35.324 43.9384 34.9929 43.3661 35.2818C42.7938 35.5706 42.5227 36.3716 42.7596 37.0705L43.4702 39.163L39.6817 37.249V16.8549C39.6817 16.28 39.3873 15.765 38.9437 15.5688L24.5099 9.15363V4.67156L25.823 6.27366C25.9141 6.3978 26.0334 6.49879 26.1711 6.56841C26.3089 6.63803 26.4612 6.67432 26.6157 6.67432C26.7702 6.67432 26.9225 6.63803 27.0603 6.56841C27.198 6.49879 27.3173 6.3978 27.4085 6.27366C27.6216 5.99552 27.737 5.65546 27.737 5.30573C27.737 4.95599 27.6216 4.61593 27.4085 4.33779L24.1813 0.400656C24.0902 0.276513 23.9709 0.175525 23.8332 0.105905C23.6954 0.0362854 23.5431 0 23.3886 0C23.2341 0 23.0818 0.0362854 22.944 0.105905C22.8063 0.175525 22.687 0.276513 22.5958 0.400656L19.3687 4.33779C19.1556 4.61593 19.0402 4.95599 19.0402 5.30573C19.0402 5.65546 19.1556 5.99552 19.3687 6.27366C19.4598 6.3978 19.5791 6.49879 19.7169 6.56841C19.8546 6.63803 20.007 6.67432 20.1615 6.67432C20.316 6.67432 20.4683 6.63803 20.606 6.56841C20.7438 6.49879 20.8631 6.3978 20.9542 6.27366L22.2672 4.67156V9.15363L7.83485 15.5688C7.39124 15.7664 7.09687 16.28 7.09687 16.8549V37.249L3.30701 39.163L4.01761 37.0705C4.25448 36.373 3.98338 35.5719 3.41107 35.2818C2.83876 34.9916 2.17882 35.324 1.94606 36.0229L0.199001 41.1657C0.084708 41.5056 0.084708 41.8733 0.199001 42.2133C0.297043 42.5296 0.515108 42.7954 0.806911 42.9544L5.02121 45.0933C5.15366 45.1616 5.30056 45.1976 5.44976 45.1982C5.88926 45.1982 6.30686 44.8807 6.48622 44.3535C6.72308 43.656 6.45199 42.8549 5.87968 42.5648L4.16548 41.6874L8.19768 39.6507L23.0052 46.2363C23.1279 46.2837 23.2572 46.3117 23.3886 46.3194C23.5196 46.3121 23.6485 46.284 23.7706 46.2363L38.5863 39.6548L42.6117 41.6874L40.8975 42.5539C40.3252 42.844 40.0541 43.6437 40.291 44.3426C40.4703 44.8698 40.8879 45.1873 41.3274 45.1873C41.4766 45.1867 41.6235 45.1507 41.756 45.0824L45.9716 42.9503C46.2632 42.791 46.4811 42.5253 46.5796 42.2092C46.6922 41.8704 46.6922 41.5045 46.5796 41.1657ZM22.2672 42.9966L11.2646 38.1059L22.2672 32.6634V42.9966ZM22.2672 29.7126L9.33956 36.0787V18.9638L22.2672 25.3299V29.7126ZM22.2672 22.3791L11.2605 16.9584L22.2672 12.0663V22.3791ZM24.5099 12.0663L35.5167 16.9584L24.5099 22.3791V12.0663ZM24.5099 42.9912V32.6634L35.5126 38.1059L24.5099 42.9912ZM37.4376 36.0733L24.5099 29.7126V25.3299L37.4376 18.9638V36.0787V36.0733Z" fill="#E93D07"/>
</svg>
