<svg width="47" height="47" viewBox="0 0 47 47" fill="none" xmlns="http://www.w3.org/2000/svg">
<path d="M0.103516 4.37717V41.8235C0.103879 42.9843 0.567474 44.0975 1.39239 44.9183C2.21731 45.7391 3.33604 46.2003 4.50265 46.2007H42.137C43.3024 46.1985 44.4193 45.7365 45.2428 44.9159C46.0662 44.0953 46.5289 42.9831 46.5292 41.8235V4.37717C46.5289 3.21756 46.0662 2.10545 45.2428 1.28485C44.4193 0.464241 43.3024 0.00216474 42.137 0L4.50265 0C3.33604 0.000361109 2.21731 0.461642 1.39239 1.28244C0.567474 2.10324 0.103879 3.21638 0.103516 4.37717H0.103516ZM30.2444 43.4869L24.9128 34.8661L30.5962 25.6786L36.2783 34.8661L30.9454 43.4869H30.2444ZM15.686 43.4869L10.3545 34.8661L16.0365 25.6786L21.7186 34.8661L16.387 43.4869H15.686ZM30.9468 2.70695L36.2865 11.3169L30.599 20.514L24.9128 11.3264L30.2444 2.70695H30.9468ZM39.4794 11.3155L43.8087 4.31586V18.3015L39.4794 11.3155ZM43.5705 23.0751L37.8747 32.2872L32.1927 23.0997L37.8829 13.8958L43.5705 23.0751ZM37.8802 8.73662L34.1424 2.70695H41.6098L37.8802 8.73662ZM28.9929 23.0969L23.3164 32.2872L17.6289 23.0969L23.3109 13.9094L28.9929 23.0969ZM23.3164 8.7448L19.5813 2.70695H27.0515L23.3164 8.7448ZM21.7186 11.3332L16.0365 20.5208L10.3545 11.3264L15.686 2.70695H16.387L21.7186 11.3332ZM14.4401 23.1038L8.75665 32.2872L3.07461 23.0969L8.75665 13.9094L14.4401 23.1038ZM8.75665 8.7448L5.02293 2.70695H12.4917L8.75665 8.7448ZM7.1602 11.3332L2.82405 18.3383V4.31586L7.1602 11.3332ZM7.1602 34.8729L2.82405 41.8767V27.8556L7.1602 34.8729ZM8.75665 37.4614L12.4917 43.4992H5.02293L8.75665 37.4614ZM23.3164 37.4614L27.0515 43.4992H19.5813L23.3164 37.4614ZM37.8747 37.4614L41.6098 43.4992H34.141L37.8747 37.4614ZM39.4726 34.8729L43.8087 27.8624V41.8767L39.4726 34.8729Z" fill="#E93D07"/>
</svg>
