<svg width="45" height="47" viewBox="0 0 45 47" fill="none" xmlns="http://www.w3.org/2000/svg">
<path d="M39.7049 12.2227H36.8297C36.0985 9.97346 34.8457 8.29507 33.7025 6.76381C32.2265 4.78162 30.9477 3.06917 30.9477 0.544772C30.9477 0.444939 30.9201 0.347035 30.8679 0.261748C30.8158 0.176461 30.7411 0.107069 30.652 0.0611452C30.5635 0.0148775 30.4638 -0.00581632 30.3641 0.00140676C30.2644 0.00862985 30.1687 0.0434813 30.0879 0.102015C27.6864 1.81174 25.6819 4.69307 24.9823 7.44361C24.5715 9.06206 24.4633 10.8494 24.4346 12.2227H23.1462C22.0016 11.1042 21.7031 9.15061 21.699 9.12337C21.6854 9.03984 21.6524 8.96063 21.6027 8.89199C21.5529 8.82335 21.4878 8.76717 21.4125 8.72791C21.3372 8.68865 21.2537 8.66738 21.1687 8.66579C21.0837 8.6642 20.9994 8.68234 20.9227 8.71875C20.835 8.76099 19.2906 9.53615 18.4459 12.2295H4.57071C3.38963 12.2309 2.25725 12.6979 1.42146 13.5283C0.585677 14.3586 0.114587 15.4846 0.111328 16.6598L0.111328 41.882C0.112777 43.0583 0.583069 44.1861 1.41905 45.0179C2.25503 45.8497 3.38845 46.3176 4.57071 46.3191H39.7049C40.8872 46.3176 42.0206 45.8497 42.8566 45.0179C43.6926 44.1861 44.1628 43.0583 44.1643 41.882V16.6598C44.1628 15.4834 43.6926 14.3557 42.8566 13.5239C42.0206 12.6921 40.8872 12.2241 39.7049 12.2227ZM27.3742 8.0444C27.6932 6.79242 28.3764 5.47232 29.265 4.31706C29.8935 5.7734 30.819 7.01175 31.7295 8.22695C32.6783 9.49801 33.5929 10.7255 34.2132 12.2227C34.2365 12.2812 34.2597 12.3426 34.2844 12.4025C34.309 12.4624 34.3405 12.5496 34.3679 12.6246C34.3953 12.6995 34.4117 12.7431 34.4322 12.803C34.4733 12.9229 34.513 13.0442 34.55 13.1668C34.5664 13.2199 34.5815 13.2744 34.5965 13.3289C34.6253 13.4297 34.6513 13.5305 34.6773 13.634C34.6883 13.679 34.7006 13.724 34.7116 13.7703C34.7444 13.9065 34.7745 14.0523 34.8019 14.1967C34.8115 14.2457 34.8197 14.2948 34.8279 14.3452C34.8512 14.4814 34.8731 14.6176 34.8923 14.7539C34.8923 14.7811 34.9005 14.807 34.9032 14.8343C34.9265 15.0182 34.9471 15.2048 34.9607 15.3969L34.9799 15.6421C34.995 15.8546 35.01 16.0508 35.01 16.2361C35.01 18.168 34.2387 20.0208 32.8658 21.3869C31.4928 22.753 29.6307 23.5205 27.6891 23.5205C25.7475 23.5205 23.8854 22.753 22.5124 21.3869C21.1395 20.0208 20.3682 18.168 20.3682 16.2361C20.3682 16.074 20.3682 15.9405 20.375 15.8274C20.375 15.8015 20.375 15.777 20.375 15.7511C20.3846 15.4228 20.4051 15.119 20.4339 14.8315C20.4558 14.5986 20.4845 14.3792 20.5174 14.1708C20.5174 14.1558 20.5174 14.1408 20.5242 14.1245C20.5352 14.0632 20.5448 14.0019 20.5557 13.9419C20.5626 13.9092 20.5681 13.8779 20.5749 13.8452C20.5886 13.7744 20.6023 13.709 20.6173 13.6368C20.6324 13.5646 20.6393 13.5346 20.6516 13.4842C20.6516 13.4569 20.6653 13.4297 20.6707 13.4024C20.6899 13.3262 20.7091 13.2512 20.7296 13.179C20.7816 13.2526 20.8364 13.3234 20.8912 13.3956L20.9377 13.4515C20.9815 13.5073 21.0281 13.5632 21.0746 13.6177L21.1171 13.6667C21.2465 13.8137 21.3836 13.9537 21.5278 14.0863H21.5347C21.6073 14.1545 21.6812 14.2226 21.7579 14.2825L21.7688 14.2907C22.0138 14.4939 22.2779 14.6732 22.5575 14.8261C22.9818 15.0578 23.438 15.2263 23.9116 15.3261C24.4531 15.441 25.0179 15.3711 25.5147 15.1277C26.0114 14.8843 26.4114 14.4814 26.6499 13.9842C26.6885 13.904 26.7223 13.8217 26.7512 13.7376C26.78 13.6545 26.8046 13.5686 26.8252 13.4828C26.8451 13.3956 26.8602 13.3074 26.8703 13.2185C26.8799 13.1286 26.8854 13.0387 26.8868 12.9461C26.8881 12.8534 26.8868 12.7281 26.8868 12.6137C26.8868 12.6014 26.8868 12.5891 26.8868 12.5769C26.8868 12.4624 26.8868 12.3439 26.8868 12.2227C26.9292 10.9734 27.0292 9.39992 27.3742 8.0444ZM41.5423 41.882C41.542 42.3667 41.3483 42.8315 41.0038 43.1743C40.6593 43.5171 40.1921 43.7098 39.7049 43.7102H4.57071C4.0835 43.7098 3.61636 43.5171 3.27185 43.1743C2.92735 42.8315 2.73365 42.3667 2.73328 41.882V16.6598C2.73365 16.175 2.92735 15.7102 3.27185 15.3674C3.61636 15.0246 4.0835 14.8319 4.57071 14.8315H17.9571C17.9351 15.104 17.9174 15.3846 17.9091 15.6803C17.8982 15.8642 17.8968 16.0481 17.8968 16.2334C17.8968 18.8167 18.9282 21.2943 20.7641 23.1211C22.6 24.9478 25.09 25.974 27.6864 25.974C30.2827 25.974 32.7727 24.9478 34.6086 23.1211C36.4445 21.2943 37.4759 18.8167 37.4759 16.2334C37.4759 15.9609 37.4567 15.7116 37.4389 15.4609L37.4198 15.2062C37.4102 15.0795 37.3992 14.9555 37.3855 14.8315H39.7131C40.2003 14.8319 40.6675 15.0246 41.012 15.3674C41.3565 15.7102 41.5502 16.175 41.5505 16.6598L41.5423 41.882Z" fill="#E93D07"/>
</svg>
