<svg width="44" height="47" viewBox="0 0 44 47" fill="none" xmlns="http://www.w3.org/2000/svg">
<path d="M38.274 0.606531H33.8283C32.8007 0.607966 31.801 0.93866 30.9771 1.54963C30.1532 2.16061 29.5489 3.01937 29.2539 3.99873H9.75558C9.16541 3.43017 8.45836 2.9957 7.68315 2.72525C6.90795 2.45481 6.08303 2.35483 5.26525 2.43221C4.44746 2.50959 3.65627 2.76248 2.94619 3.17345C2.2361 3.58443 1.62403 4.14372 1.15214 4.81277C0.680247 5.48182 0.359768 6.24473 0.212786 7.04891C0.0658047 7.85309 0.0958168 8.67942 0.300754 9.47094C0.505691 10.2625 0.880679 11.0004 1.39987 11.6338C1.91907 12.2672 2.57012 12.7811 3.30817 13.14L8.2714 23.3765C7.99756 24.3302 8.05233 24.8288 8.05233 26.9281H4.98677C4.62364 26.9281 4.27539 27.0716 4.01862 27.3271C3.76185 27.5826 3.6176 27.9291 3.6176 28.2904V38.7804H1.4995C1.13637 38.7804 0.788118 38.9239 0.531349 39.1794C0.27458 39.4349 0.130329 39.7814 0.130329 40.1427V45.5634C0.130329 45.9247 0.27458 46.2713 0.531349 46.5267C0.788118 46.7822 1.13637 46.9258 1.4995 46.9258H26.1281C26.4912 46.9258 26.8395 46.7822 27.0962 46.5267C27.353 46.2713 27.4972 45.9247 27.4972 45.5634V40.1414C27.4972 39.78 27.353 39.4335 27.0962 39.178C26.8395 38.9226 26.4912 38.779 26.1281 38.779H23.999V28.2891C23.999 27.9278 23.8548 27.5813 23.598 27.3258C23.3412 27.0703 22.993 26.9268 22.6299 26.9268H19.5725V24.9446C19.5766 23.7138 19.1807 22.5147 18.4439 21.526C17.7072 20.5373 16.669 19.8121 15.4842 19.4585L11.8901 12.1414H29.0499V17.7147C29.0499 18.076 29.1941 18.4225 29.4509 18.678C29.7077 18.9335 30.0559 19.077 30.4191 19.077H31.9621V23.1476C31.9621 23.509 32.1064 23.8555 32.3631 24.111C32.6199 24.3664 32.9681 24.51 33.3313 24.51H34.7004V28.7019C34.6835 28.8903 34.7061 29.0801 34.7669 29.2594C34.8277 29.4386 34.9254 29.6033 35.0537 29.7429C35.1819 29.8825 35.338 29.994 35.512 30.0703C35.686 30.1465 35.874 30.1859 36.0641 30.1859C36.2542 30.1859 36.4423 30.1465 36.6162 30.0703C36.7902 29.994 36.9463 29.8825 37.0746 29.7429C37.2029 29.6033 37.3005 29.4386 37.3614 29.2594C37.4222 29.0801 37.4448 28.8903 37.4278 28.7019V24.5004H38.797C39.1601 24.5004 39.5084 24.3569 39.7651 24.1014C40.0219 23.8459 40.1662 23.4994 40.1662 23.1381V19.0729H41.7106C42.0737 19.0729 42.422 18.9294 42.6787 18.6739C42.9355 18.4184 43.0797 18.0719 43.0797 17.7106V5.35425C43.079 4.7281 42.954 4.10826 42.7118 3.53034C42.4696 2.95241 42.1151 2.4278 41.6685 1.98663C41.2219 1.54546 40.6922 1.19642 40.1096 0.959584C39.5271 0.722744 38.9032 0.602762 38.274 0.606531ZM5.81237 5.12947C6.39708 5.1292 6.96873 5.30147 7.45503 5.6245C7.94133 5.94753 8.32042 6.4068 8.54437 6.94422C8.76831 7.48164 8.82705 8.07308 8.71314 8.64372C8.59924 9.21436 8.31781 9.73857 7.90446 10.1501C7.4911 10.5615 6.96439 10.8418 6.39094 10.9554C5.81749 11.069 5.22306 11.0108 4.68283 10.7882C4.14261 10.5657 3.68086 10.1887 3.35599 9.70496C3.03111 9.22124 2.85771 8.65253 2.85771 8.07074C2.85753 7.68455 2.93382 7.30211 3.08223 6.94527C3.23063 6.58842 3.44824 6.26417 3.72263 5.99103C3.99701 5.71789 4.32279 5.50121 4.68136 5.35339C5.03992 5.20556 5.42425 5.12947 5.81237 5.12947ZM24.7644 44.212H2.85771V41.4982H24.7644V44.212ZM21.2716 38.7831H6.34772V29.646H21.2716V38.7831ZM16.8424 24.9446V26.9322H10.7797V24.9446C10.7797 24.5485 10.8581 24.1563 11.0105 23.7903C11.1628 23.4244 11.3861 23.0919 11.6676 22.8118C11.9491 22.5317 12.2832 22.3095 12.651 22.158C13.0188 22.0064 13.413 21.9284 13.811 21.9284C14.2091 21.9284 14.6033 22.0064 14.9711 22.158C15.3389 22.3095 15.673 22.5317 15.9545 22.8118C16.236 23.0919 16.4593 23.4244 16.6116 23.7903C16.764 24.1563 16.8424 24.5485 16.8424 24.9446ZM9.98012 20.66L6.59143 13.6726C7.5022 13.5503 8.36901 13.2079 9.11617 12.6754L12.409 19.3835C11.508 19.6084 10.6747 20.0463 9.98012 20.66ZM29.0471 9.42762H11.3301C11.5506 8.53587 11.5506 7.60425 11.3301 6.7125H29.0499C29.0485 7.39366 29.0471 8.30097 29.0471 9.42762ZM37.41 21.7867H34.6826V19.0729H37.41V21.7867ZM40.3181 16.3592H31.7759V5.46051V5.41828C31.7759 5.38422 31.7759 5.35153 31.7759 5.31747C31.7884 4.78381 32.0103 4.2762 32.3941 3.90323C32.7779 3.53025 33.2932 3.32151 33.8296 3.32166H38.2753C38.8167 3.32416 39.3352 3.53926 39.718 3.92016C40.1008 4.30106 40.317 4.81695 40.3195 5.35562L40.3181 16.3592Z" fill="#E93D07"/>
<path d="M11.0824 35.5722C11.8356 35.5722 12.4461 34.9647 12.4461 34.2153C12.4461 33.4659 11.8356 32.8584 11.0824 32.8584C10.3293 32.8584 9.71875 33.4659 9.71875 34.2153C9.71875 34.9647 10.3293 35.5722 11.0824 35.5722Z" fill="#E93D07"/>
<path d="M16.5356 35.5722C17.2887 35.5722 17.8993 34.9647 17.8993 34.2153C17.8993 33.4659 17.2887 32.8584 16.5356 32.8584C15.7824 32.8584 15.1719 33.4659 15.1719 34.2153C15.1719 34.9647 15.7824 35.5722 16.5356 35.5722Z" fill="#E93D07"/>
</svg>
