<svg width="39" height="47" viewBox="0 0 39 47" fill="none" xmlns="http://www.w3.org/2000/svg">
<path d="M31.2219 29.0544H31.1247C30.3977 29.0544 29.7871 29.5735 29.7337 30.2288C29.6516 31.5565 29.2019 32.8357 28.4343 33.9248C27.6377 35.0731 26.5517 35.993 25.2852 36.5922C24.9679 36.7526 24.7258 37.0297 24.6102 37.3647C24.555 37.52 24.5367 37.6859 24.5567 37.8494C24.5766 38.013 24.6343 38.1697 24.7252 38.3074C24.8659 38.5275 25.0601 38.7087 25.2899 38.8342C25.5196 38.9597 25.7775 39.0254 26.0396 39.0253C26.2779 39.0253 26.5127 38.9683 26.7242 38.8591C28.3909 38.0513 29.8178 36.8259 30.8646 35.3035C31.902 33.8615 32.4862 32.1456 32.5432 30.3732C32.6062 29.7015 32.0092 29.1048 31.2219 29.0544Z" fill="#E93D07"/>
<path d="M25.2453 7.11273C24.4813 6.11686 23.7871 5.18775 23.1162 4.28862L22.1975 3.06252C22.072 2.9029 21.9185 2.7672 21.7443 2.66199C21.5762 2.56361 21.39 2.49969 21.1967 2.47399V1.15798C21.1967 0.850865 21.0741 0.556328 20.8558 0.339165C20.6376 0.122001 20.3415 0 20.0329 0C19.7242 0 19.4282 0.122001 19.21 0.339165C18.9917 0.556328 18.8691 0.850865 18.8691 1.15798V2.49306C16.855 3.038 15.1573 3.95484 13.8032 5.2259C9.74495 9.04042 9.9339 14.9652 10.0133 17.4964C10.0229 17.7771 10.0297 18.0195 10.0297 18.1994C10.0297 20.0794 10.3611 21.815 10.6527 23.3463C10.8403 24.3326 11.0032 25.184 11.032 25.8543C11.0635 26.5723 10.9197 26.7357 10.9129 26.7425C10.906 26.7494 10.7225 26.8474 10.2611 26.8474C10.027 26.8579 9.79333 26.818 9.57615 26.7303C9.35898 26.6426 9.16342 26.5092 9.00286 26.3393C7.66108 24.9661 7.56798 21.2183 7.82538 19.1789C7.84678 18.9987 7.82698 18.816 7.76747 18.6445C7.70797 18.473 7.61028 18.3171 7.48172 18.1885C7.34543 18.0528 7.18335 17.9454 7.00493 17.8727C6.82651 17.7999 6.63533 17.7633 6.44252 17.7648C2.83339 17.7648 0.134766 23.1501 0.134766 27.9659C0.138171 30.2446 0.644849 32.4946 1.61894 34.5569C2.59178 36.6257 3.96258 38.4849 5.65388 40.0294C9.21372 43.3139 13.9072 45.1354 18.8705 45.1653C18.8705 45.4725 18.9931 45.767 19.2113 45.9842C19.4296 46.2013 19.7256 46.3233 20.0342 46.3233C20.3429 46.3233 20.6389 46.2013 20.8572 45.9842C21.0754 45.767 21.198 45.4725 21.198 45.1653C25.6971 45.1149 29.9402 43.521 33.1673 40.6628C36.4451 37.7583 38.251 33.9234 38.251 29.8636C38.2469 24.0274 30.4235 13.8495 25.2453 7.11273ZM2.91691 27.9659C2.9184 26.0259 3.39442 24.1154 4.30388 22.3994C4.4864 22.0617 4.69466 21.7383 4.92685 21.4322C4.95013 23.5247 5.31433 26.3774 6.9231 28.0259C7.35618 28.4678 7.87571 28.8166 8.44959 29.051C9.02348 29.2853 9.63955 29.4 10.2598 29.3882C11.492 29.3882 12.423 29.049 13.0405 28.3801C14.1947 27.1281 13.8415 25.2685 13.3924 22.9158C13.1186 21.4853 12.8105 19.8641 12.8105 18.2035C12.8105 17.9868 12.8023 17.728 12.7927 17.4269C12.7174 15.0292 12.5586 10.039 15.7967 6.99829C16.6829 6.18586 17.7298 5.56642 18.8705 5.17958V42.63C10.2105 42.5646 2.91691 35.877 2.91691 27.9659ZM31.1752 38.9013C28.5245 41.2486 24.9879 42.5619 21.1939 42.611V6.29124C21.1939 6.29124 21.1939 6.29124 21.2008 6.29805C21.5061 6.66997 21.806 7.07322 22.125 7.50099C22.3605 7.81978 22.6055 8.1481 22.8629 8.47778L23.3202 9.08266C28.404 15.803 35.3689 25.0056 35.3689 29.8623C35.3648 33.234 33.8779 36.4437 31.1752 38.9013Z" fill="#E93D07"/>
</svg>
