<svg width="48" height="47" viewBox="0 0 48 47" fill="none" xmlns="http://www.w3.org/2000/svg">
<path d="M47.1532 24.9306C47.1449 24.7797 47.112 24.6311 47.056 24.4906C47.0517 24.4779 47.0462 24.4656 47.0396 24.4538C47.0313 24.4361 47.0218 24.4211 47.0149 24.4075C46.8767 24.1384 46.6581 23.9185 46.3892 23.7781C46.3451 23.7532 46.2994 23.7314 46.2523 23.7127C46.0915 23.6486 45.9203 23.6144 45.7471 23.6119H37.6745C36.6668 23.6094 35.7012 23.21 34.9887 22.5011C34.2762 21.7921 33.8748 20.8313 33.8723 19.8287V1.41137C33.872 1.37479 33.8683 1.33831 33.8613 1.30239C33.8515 1.17927 33.8257 1.05792 33.7846 0.94137C33.7805 0.923418 33.7755 0.905685 33.7696 0.88824C33.764 0.872028 33.7576 0.856113 33.7504 0.840558C33.6838 0.68946 33.5911 0.551137 33.4766 0.431859C33.4465 0.401888 33.4136 0.374641 33.3807 0.347394C33.2975 0.273885 33.2055 0.210752 33.1069 0.159393C32.9053 0.0545891 32.6813 -9.94574e-05 32.4538 1.35783e-07H26.7581C26.5618 0.000493102 26.3678 0.041419 26.1883 0.1202C26.0087 0.19898 25.8475 0.313908 25.7148 0.457743L12.8254 14.6737L12.7912 14.7145C12.7638 14.754 12.7392 14.7935 12.7159 14.8344C12.5808 15.0036 12.4993 15.2089 12.4818 15.4243C12.47 15.4728 12.4609 15.5219 12.4544 15.5714C12.4544 15.5905 12.4544 15.6096 12.4544 15.6287V26.3774L0.522089 38.2433C0.259953 38.5077 0.112475 38.8638 0.111339 39.2351V44.9024C0.110618 45.0882 0.146775 45.2723 0.217736 45.4442C0.288698 45.6161 0.393066 45.7723 0.524854 45.9039C0.656642 46.0356 0.813255 46.14 0.985708 46.2113C1.15816 46.2825 1.34306 46.3192 1.5298 46.3192H31.9048C32.0932 46.319 32.2795 46.2805 32.4524 46.2062C32.4833 46.1941 32.5127 46.1786 32.5401 46.1598C32.6649 46.0981 32.7798 46.0182 32.881 45.9228L32.9275 45.8806L41.0494 37.3565L46.7452 31.6892C46.8763 31.5578 46.9801 31.402 47.0506 31.2306C47.1211 31.0592 47.1569 30.8757 47.1559 30.6906V25.0233C47.1575 24.9924 47.1566 24.9614 47.1532 24.9306ZM33.3246 41.3726V39.8046L41.0494 31.6892L44.3231 28.4318V30.1075L39.0176 35.3865L33.3246 41.3726ZM4.95545 37.8306L12.4516 30.3718V34.0501C12.4484 35.0525 12.0468 36.0128 11.3344 36.7216C10.6221 37.4304 9.65687 37.83 8.64947 37.8333L4.95545 37.8306ZM29.2281 2.81866L18.9415 14.2132H17.089L27.3769 2.81866H29.2281ZM15.2886 34.046V17.04H18.146V34.046C18.1511 35.7967 18.8524 37.4742 20.0966 38.712C21.3409 39.9498 23.027 40.6473 24.7865 40.6519H30.4863V43.4965H2.94825V40.6519H8.64947C10.4088 40.6473 12.0948 39.9498 13.3388 38.7119C14.5829 37.4741 15.2839 35.7966 15.2886 34.046ZM24.7865 37.8292C23.779 37.8263 22.8135 37.4268 22.1011 36.7179C21.3887 36.0091 20.9872 35.0485 20.9843 34.046V16.1763L31.0354 5.04062V19.8301C31.0349 21.456 31.6373 23.0249 32.7272 24.2363C33.8171 25.4476 35.3178 26.2164 36.9419 26.3951C37.0099 26.4126 37.079 26.4253 37.1487 26.4333H37.198H42.3159L39.0176 29.7151L31.2955 37.8265L24.7865 37.8292Z" fill="#E93D07"/>
</svg>
