<svg width="47" height="39" viewBox="0 0 47 39" fill="none" xmlns="http://www.w3.org/2000/svg">
<path d="M46.6591 9.52405V6.82936C46.6591 5.28857 45.4351 4.03658 43.9317 4.03658H31.2628V3.72461C31.2628 1.67158 29.6308 0 27.6277 0H3.74393C1.7381 0 0.107422 1.67158 0.107422 3.72461V29.9876C0.107422 32.042 1.7381 33.7122 3.74393 33.7122H5.68404C6.30975 36.6317 8.85503 38.8264 11.8905 38.8264C14.9259 38.8264 17.4698 36.6344 18.0955 33.715H31.3915C32.0172 36.6344 34.5625 38.8264 37.5966 38.8264C40.6635 38.8264 43.2294 36.5895 43.8222 33.6237C44.6376 33.4242 45.3614 32.9566 45.8763 32.2966C46.3912 31.6367 46.667 30.8231 46.6591 29.9876V19.7892C46.6585 19.5732 46.6094 19.36 46.5154 19.1653L43.3553 12.3182H43.9317C45.4378 12.3182 46.6591 11.0648 46.6591 9.52405ZM11.8905 36.0295C9.88738 36.0295 8.26355 34.3607 8.26355 32.3158C8.26355 30.271 9.88191 28.6089 11.8905 28.6089C13.899 28.6089 15.5147 30.2805 15.5147 32.3226C15.5147 34.3648 13.8977 36.0295 11.8905 36.0295ZM28.5354 30.9249H18.0955C17.4698 28.0054 14.9246 25.8148 11.8905 25.8148C8.8564 25.8148 6.30975 27.9986 5.68404 30.9249H3.74393C3.49942 30.9213 3.26633 30.8213 3.09587 30.6468C2.92541 30.4724 2.83151 30.2377 2.8348 29.9944V3.72461C2.83187 3.48142 2.92589 3.24697 3.09627 3.07259C3.26666 2.89821 3.49953 2.79809 3.74393 2.79414H27.6277C27.8721 2.79809 28.105 2.89821 28.2753 3.07259C28.4457 3.24697 28.5397 3.48142 28.5368 3.72461L28.5354 30.9249ZM31.2628 12.3182H40.339L43.1417 18.3915H31.2628V12.3182ZM37.5966 36.0295C35.599 36.0295 33.9724 34.3634 33.9724 32.3158C33.9724 30.2683 35.5949 28.6089 37.5966 28.6089C39.5983 28.6089 41.2235 30.2805 41.2235 32.3226C41.2235 34.3648 39.6011 36.0295 37.5966 36.0295ZM43.9317 21.1801V29.9808C43.9323 30.1975 43.8578 30.4077 43.7209 30.5761C42.9802 27.827 40.5143 25.8012 37.5966 25.8012C34.5625 25.8012 32.0172 27.9918 31.3915 30.9113H31.2628V21.187L43.9317 21.1801ZM31.2628 9.52405V6.82936H43.9317V9.52405H31.2628Z" fill="#E93D07"/>
</svg>
