<svg width="39" height="47" viewBox="0 0 39 47" fill="none" xmlns="http://www.w3.org/2000/svg">
<path d="M37.4479 19.1721H35.1737V17.2566C35.1839 13.8309 34.0529 10.4985 31.9576 7.78027C30.0915 5.3573 27.5588 3.52534 24.6667 2.50669L24.4518 1.14436C24.3999 0.825716 24.2359 0.535765 23.9892 0.326184C23.7425 0.116602 23.4289 0.00100643 23.1045 0L15.8301 0C15.5055 0.00105926 15.1918 0.116847 14.9451 0.326703C14.6983 0.536559 14.5345 0.826829 14.4829 1.14572L14.2679 2.50805C11.3757 3.52644 8.84262 5.35788 6.97573 7.78027C4.88036 10.4985 3.74935 13.8309 3.75956 17.2566V19.1721H1.49221C1.12909 19.1721 0.780836 19.3156 0.524067 19.5711C0.267298 19.8266 0.123047 20.1731 0.123047 20.5344L0.123047 25.9619C0.123047 26.1408 0.158461 26.318 0.227269 26.4833C0.296076 26.6486 0.396928 26.7987 0.524067 26.9252C0.651206 27.0517 0.802142 27.1521 0.968257 27.2206C1.13437 27.289 1.31241 27.3243 1.49221 27.3243H2.35616C2.04298 29.5046 2.1536 31.7246 2.68202 33.8634C2.75576 34.1576 2.92601 34.4189 3.16582 34.606C3.40564 34.793 3.7013 34.8951 4.00601 34.8961H7.09211C7.5334 35.9466 8.1091 36.9362 8.80494 37.8401L7.26189 40.4885C7.11005 40.7515 7.05076 41.0574 7.09342 41.3577C7.13608 41.658 7.27824 41.9356 7.49738 42.1464C9.5137 44.072 11.9674 45.4847 14.6499 46.2647C14.9431 46.3481 15.2558 46.3317 15.5385 46.2182C15.8213 46.1047 16.0579 45.9005 16.2108 45.6381L17.7566 42.9747C18.8929 43.1192 20.0431 43.1192 21.1795 42.9747L22.7239 45.6381C22.8436 45.8444 23.0156 46.0158 23.2227 46.1353C23.4297 46.2549 23.6647 46.3183 23.9041 46.3192C24.033 46.3193 24.1611 46.3009 24.2847 46.2647C26.9669 45.4847 29.4201 44.0719 31.4359 42.1464C31.6553 41.9357 31.7977 41.6583 31.8406 41.3579C31.8835 41.0576 31.8244 40.7516 31.6728 40.4885L30.1297 37.8292C30.8256 36.9253 31.4013 35.9357 31.8426 34.8852H34.9341C35.2388 34.8842 35.5345 34.7821 35.7743 34.5951C36.0141 34.408 36.1844 34.1467 36.2581 33.8525C36.7865 31.7137 36.8972 29.4937 36.584 27.3134H37.4479C37.811 27.3134 38.1593 27.1698 38.4161 26.9143C38.6728 26.6589 38.8171 26.3123 38.8171 25.951V20.529C38.8171 20.1676 38.6728 19.8211 38.4161 19.5656C38.1593 19.3102 37.811 19.1666 37.4479 19.1666V19.1721ZM2.85043 21.8858H5.12325C5.48637 21.8858 5.83463 21.7423 6.09139 21.4868C6.34816 21.2313 6.49241 20.8848 6.49241 20.5235V17.2539C6.50069 14.838 7.18615 12.4722 8.47172 10.4227C9.75729 8.37317 11.592 6.72112 13.7695 5.65231L12.6646 12.6356C12.6098 12.9909 12.6983 13.3534 12.9109 13.6441C13.1235 13.9347 13.443 14.13 13.7997 14.1873C13.8703 14.1981 13.9417 14.2035 14.0133 14.2037C14.3376 14.2023 14.651 14.0863 14.8975 13.8765C15.144 13.6667 15.3076 13.3766 15.3591 13.0579L17.0021 2.71376H21.9435L23.5865 13.0579C23.638 13.3766 23.8017 13.6667 24.0481 13.8765C24.2946 14.0863 24.608 14.2023 24.9324 14.2037C25.0039 14.2036 25.0753 14.1981 25.146 14.1873C25.5014 14.1284 25.8191 13.9325 26.0303 13.642C26.2415 13.3515 26.3291 12.9899 26.2741 12.6356L25.1651 5.65231C27.3438 6.72076 29.1797 8.37299 30.466 10.4231C31.7524 12.4732 32.4382 14.8398 32.4464 17.2566V20.5262C32.4464 20.7051 32.4818 20.8823 32.5506 21.0476C32.6194 21.2129 32.7202 21.363 32.8474 21.4895C32.9745 21.616 33.1255 21.7164 33.2916 21.7849C33.4577 21.8533 33.6357 21.8886 33.8155 21.8886H36.0883V24.6023H2.85043V21.8858ZM22.88 29.741C22.88 30.6414 22.5205 31.5049 21.8806 32.1416C21.2408 32.7783 20.3729 33.136 19.468 33.136C18.5631 33.136 17.6953 32.7783 17.0554 32.1416C16.4155 31.5049 16.0561 30.6414 16.0561 29.741C16.0547 29.2881 16.1454 28.8397 16.3225 28.4225C16.4997 28.0053 16.7597 27.6281 17.087 27.3134H21.849C22.1761 27.6283 22.4359 28.0056 22.6131 28.4227C22.7902 28.8398 22.881 29.2882 22.88 29.741ZM34.0305 29.741C34.0307 30.5555 33.962 31.3685 33.8251 32.1714H30.8992C30.6133 32.1721 30.3348 32.2618 30.1028 32.428C29.8708 32.5941 29.6968 32.8283 29.6053 33.0978C29.149 34.4617 28.4175 35.7184 27.4557 36.7911C27.2661 37.0046 27.1485 37.2719 27.1195 37.5554C27.0905 37.8389 27.1516 38.1243 27.2942 38.3714L28.7564 40.8903C27.4943 41.9299 26.0661 42.7518 24.5312 43.3221L23.0689 40.8018C22.9247 40.5575 22.7076 40.364 22.4477 40.2483C22.1878 40.1326 21.8981 40.1003 21.619 40.1561C20.2017 40.4421 18.7412 40.4421 17.3239 40.1561C17.0433 40.0996 16.752 40.132 16.491 40.2489C16.2299 40.3657 16.0122 40.5609 15.8685 40.8072L14.4035 43.3221C12.8681 42.7502 11.44 41.9264 10.1782 40.8849L11.6405 38.3659C11.783 38.1188 11.8441 37.8334 11.8151 37.5499C11.7862 37.2665 11.6686 36.9992 11.4789 36.7856C10.5191 35.7162 9.78778 34.4639 9.32933 33.1046C9.23785 32.8351 9.0639 32.6009 8.83186 32.4348C8.59982 32.2686 8.32133 32.1789 8.03547 32.1782H5.10955C4.83481 30.5704 4.83481 28.928 5.10955 27.3202H13.8284C13.425 28.2497 13.2601 29.2645 13.3485 30.2732C13.4368 31.2819 13.7758 32.2529 14.3348 33.099C14.8938 33.945 15.6554 34.6396 16.551 35.1202C17.4467 35.6009 18.4484 35.8525 19.466 35.8525C20.4836 35.8525 21.4852 35.6009 22.3809 35.1202C23.2765 34.6396 24.0381 33.945 24.5971 33.099C25.1561 32.2529 25.4951 31.2819 25.5835 30.2732C25.6719 29.2645 25.5069 28.2497 25.1035 27.3202H33.8224C33.9597 28.1222 34.0289 28.9343 34.0291 29.7478L34.0305 29.741Z" fill="#E93D07"/>
</svg>
