<svg width="14" height="14" viewBox="0 0 14 14" fill="none" xmlns="http://www.w3.org/2000/svg">
<path fill-rule="evenodd" clip-rule="evenodd" d="M6.25 1C3.35051 1 1 3.35051 1 6.25C1 9.1495 3.35051 11.5 6.25 11.5C7.48959 11.5 8.62884 11.0704 9.52698 10.3519L12.0833 12.9083L12.9083 12.0833L10.3519 9.52698C11.0704 8.62884 11.5 7.48959 11.5 6.25C11.5 3.35051 9.1495 1 6.25 1ZM2.16667 6.25C2.16667 3.99484 3.99484 2.16667 6.25 2.16667C8.50516 2.16667 10.3333 3.99484 10.3333 6.25C10.3333 8.50516 8.50516 10.3333 6.25 10.3333C3.99484 10.3333 2.16667 8.50516 2.16667 6.25Z" fill="#101D23"/>
</svg>
