<svg width="18" height="18" viewBox="0 0 18 18" fill="none" xmlns="http://www.w3.org/2000/svg">
<path d="M0 9C0 4.02944 4.02944 0 9 0C13.9706 0 18 4.02944 18 9C18 13.9706 13.9706 18 9 18C4.02944 18 0 13.9706 0 9Z" fill="#FF0000"/>
<path d="M13.5986 6.77741C13.4882 6.35328 13.1629 6.0193 12.7498 5.90595C12.0012 5.69995 8.99922 5.69995 8.99922 5.69995C8.99922 5.69995 5.9972 5.69995 5.24856 5.90595C4.83549 6.0193 4.51018 6.35328 4.39978 6.77741C4.19922 7.54609 4.19922 9.14995 4.19922 9.14995C4.19922 9.14995 4.19922 10.7538 4.39978 11.5225C4.51018 11.9466 4.83549 12.2806 5.24856 12.394C5.9972 12.6 8.99922 12.6 8.99922 12.6C8.99922 12.6 12.0012 12.6 12.7498 12.394C13.1629 12.2806 13.4882 11.9466 13.5986 11.5225C13.7992 10.7538 13.7992 9.14995 13.7992 9.14995C13.7992 9.14995 13.7992 7.54609 13.5986 6.77741Z" fill="white"/>
<path d="M8.09961 10.8V7.80005L10.4996 9.30011L8.09961 10.8Z" fill="#FF0000"/>
</svg>
